<svg width="36" height="36" viewBox="0 0 36 36" fill="none" xmlns="http://www.w3.org/2000/svg">
<path d="M18.0009 0.545044C13.2609 0.545044 12.666 0.566031 10.804 0.651031C8.94596 0.736031 7.67693 1.03004 6.56793 1.46204C5.41993 1.90804 4.44595 2.50404 3.47595 3.47504C2.50495 4.44504 1.90794 5.41904 1.46094 6.56604C1.02894 7.67604 0.733963 8.94504 0.649963 10.803C0.566963 12.664 0.544922 13.26 0.544922 18C0.544922 22.74 0.56594 23.333 0.65094 25.195C0.73594 27.053 1.02991 28.322 1.46191 29.432C1.90791 30.58 2.50391 31.553 3.47491 32.524C4.44391 33.494 5.41794 34.092 6.56494 34.538C7.67594 34.97 8.94494 35.264 10.8019 35.349C12.6639 35.434 13.259 35.454 17.999 35.454C22.739 35.454 23.3319 35.434 25.1899 35.349C27.0499 35.264 28.3199 34.97 29.4299 34.538C30.5799 34.092 31.55 33.494 32.52 32.524C33.49 31.553 34.0899 30.58 34.5399 29.432C34.9699 28.322 35.2599 27.053 35.3499 25.196C35.4299 23.334 35.45 22.74 35.45 18C35.45 13.26 35.4299 12.665 35.3499 10.803C35.2599 8.94504 34.9699 7.67602 34.5399 6.56702C34.0899 5.41902 33.49 4.44504 32.52 3.47504C31.55 2.50404 30.5799 1.90704 29.4299 1.46204C28.3199 1.03004 27.0499 0.736031 25.1899 0.651031C23.3299 0.566031 22.7369 0.545044 17.9949 0.545044H18.0009ZM16.4349 3.69104C16.8999 3.69004 17.4179 3.69104 18.0009 3.69104C22.6609 3.69104 23.2129 3.70802 25.0499 3.79102C26.7599 3.86902 27.6799 4.15303 28.2899 4.39203C29.1099 4.70903 29.6899 5.08703 30.2999 5.69803C30.9099 6.30903 31.2899 6.89102 31.6099 7.70502C31.8499 8.32002 32.13 9.24304 32.21 10.945C32.29 12.785 32.3099 13.338 32.3099 17.996C32.3099 22.654 32.29 23.207 32.21 25.047C32.13 26.749 31.8499 27.672 31.6099 28.287C31.2899 29.101 30.9099 29.681 30.2999 30.292C29.6899 30.903 29.1099 31.281 28.2899 31.597C27.6799 31.837 26.7599 32.121 25.0499 32.199C23.2139 32.282 22.6609 32.301 18.0009 32.301C13.3399 32.301 12.7879 32.282 10.9479 32.199C9.24594 32.12 8.32191 31.836 7.70691 31.597C6.89191 31.281 6.31095 30.903 5.69995 30.292C5.08895 29.681 4.71092 29.1 4.39392 28.285C4.15492 27.671 3.86993 26.747 3.79193 25.045C3.70893 23.205 3.69196 22.653 3.69196 17.992C3.69196 13.33 3.70893 12.781 3.79193 10.941C3.86993 9.23904 4.15492 8.31504 4.39392 7.70004C4.70992 6.88504 5.08895 6.30402 5.69995 5.69302C6.31095 5.08202 6.89191 4.70402 7.70691 4.38702C8.32191 4.14702 9.24594 3.86303 10.9479 3.78503C12.5579 3.71203 13.1819 3.69004 16.4349 3.68704V3.69104ZM27.3199 6.58902C26.1599 6.58902 25.2199 7.52604 25.2199 8.68304C25.2199 9.83904 26.1599 10.777 27.3199 10.777C28.4699 10.777 29.4099 9.83904 29.4099 8.68304C29.4099 7.52704 28.4699 6.58804 27.3199 6.58804V6.58902ZM18.0009 9.03604C13.0509 9.03604 9.03693 13.05 9.03693 18C9.03693 22.95 13.0509 26.962 18.0009 26.962C22.9509 26.962 26.96 22.95 26.96 18C26.96 13.05 22.9499 9.03604 17.9999 9.03604H18.0009ZM18.0009 12.182C21.2139 12.182 23.8189 14.786 23.8189 18C23.8189 21.213 21.2139 23.818 18.0009 23.818C14.7869 23.818 12.1829 21.213 12.1829 18C12.1829 14.786 14.7869 12.182 18.0009 12.182Z" fill="#57B2AE"/>
</svg>
