<svg width="30" height="30" viewBox="0 0 30 30" fill="none" xmlns="http://www.w3.org/2000/svg">
<path d="M4.09998 7.84C6.06998 7.84 7.66003 6.248 7.66003 4.284C7.66003 2.321 6.06998 0.729004 4.09998 0.729004C2.13998 0.729004 0.550049 2.321 0.550049 4.284C0.550049 6.248 2.13998 7.84 4.09998 7.84Z" fill="#57B2AE"/>
<path d="M10.9199 10.468H16.8099V13.167C16.8099 13.167 18.4099 9.96899 22.7599 9.96899C26.6399 9.96899 29.8499 11.881 29.8499 17.709V29.998H23.7499V19.198C23.7499 15.76 21.9099 15.382 20.5099 15.382C17.6099 15.382 17.1099 17.885 17.1099 19.646V29.998H10.9199V10.468Z" fill="#57B2AE"/>
<path d="M1 10.467H7.19995V29.998H1V10.467Z" fill="#57B2AE"/>
</svg>
